<?xml version="1.0" encoding="utf-8"?>
<svg viewBox="0 0 385 385" xmlns="http://www.w3.org/2000/svg">
  <g id="Group">
    <path id="logo-rect-partial" stroke="currentColor" opacity="0.6" fill="none" stroke-width="13.6875" d="M 68.179688 64 L 54 64 C 41.85405 64 35.781067 64 31.227577 66.550079 C 28.009415 68.352325 25.352333 71.00943 23.550079 74.22757 C 21 78.781067 21 84.854034 21 97 L 21 331 C 21 343.145935 21 349.218933 23.550079 353.77243 C 25.352333 356.99057 28.009415 359.647675 31.227577 361.449921 C 35.781067 364 41.85405 364 54 364 L 288 364 C 300.145966 364 306.218933 364 310.77243 361.449921 C 313.990601 359.647675 316.647675 356.99057 318.449921 353.77243 C 321 349.218933 321 343.145935 321 331 L 321 314.539063 M 321 314.539063 L 321 314" />
    <path id="logo-rect-full" stroke="currentColor" fill="none" stroke-width="13.6875" d="M 71 281 C 71 293.145935 71 299.218933 73.550079 303.77243 C 75.352333 306.99057 78.009422 309.647675 81.227577 311.449921 C 85.781067 314 91.85405 314 104 314 L 338 314 C 350.145966 314 356.218933 314 360.77243 311.449921 C 363.990601 309.647675 366.647675 306.99057 368.449921 303.77243 C 371 299.218933 371 293.145935 371 281 L 371 47 C 371 34.854034 371 28.781067 368.449921 24.22757 C 366.647675 21.009399 363.99057 18.352325 360.77243 16.550079 C 356.218933 14 350.145966 14 338 14 L 104 14 C 91.85405 14 85.781067 14 81.227577 16.550079 C 78.009422 18.352325 75.352333 21.00943 73.550079 24.22757 C 71 28.781067 71 34.854034 71 47 Z" />
    <path id="logo-bar-1" fill="#f26522" opacity="0.7" d="M 123.476 142.563 H 123.476 A 10.86 10.86 0 0 1 134.336 153.423 V 174.714 A 10.86 10.86 0 0 1 123.476 185.574 H 123.476 A 10.86 10.86 0 0 1 112.616 174.714 V 153.423 A 10.86 10.86 0 0 1 123.476 142.563 Z"></path>
    <path id="logo-bar-2" fill="#f26522" opacity="0.8" d="M 155.737 131.806 H 155.737 A 10.86 10.86 0 0 1 166.597 142.666 V 185.886 A 10.86 10.86 0 0 1 155.737 196.746 H 155.737 A 10.86 10.86 0 0 1 144.877 185.886 V 142.666 A 10.86 10.86 0 0 1 155.737 131.806 Z"></path>
    <path id="logo-bar-3" fill="#f26522" opacity="0.9" d="M 187.999 99.581 H 187.999 A 10.86 10.86 0 0 1 198.859 110.441 V 217.875 A 10.86 10.86 0 0 1 187.999 228.735 H 187.999 A 10.86 10.86 0 0 1 177.139 217.875 V 110.441 A 10.86 10.86 0 0 1 187.999 99.581 Z"></path>
    <path id="logo-bar-4" fill="#f26522" opacity="1" d="M 220.26 77.756 H 220.26 A 10.86 10.86 0 0 1 231.12 88.616 V 239.45 A 10.86 10.86 0 0 1 220.26 250.31 H 220.26 A 10.86 10.86 0 0 1 209.4 239.45 V 88.616 A 10.86 10.86 0 0 1 220.26 77.756 Z"></path>
    <path id="logo-bar-5" fill="#f26522" opacity="0.9" d="M 252.521 121.491 H 252.521 A 10.86 10.86 0 0 1 263.381 132.351 V 196.563 A 10.86 10.86 0 0 1 252.521 207.423 H 252.521 A 10.86 10.86 0 0 1 241.661 196.563 V 132.351 A 10.86 10.86 0 0 1 252.521 121.491 Z"></path>
    <path id="logo-bar-6" fill="#f26522" opacity="0.8" d="M 284.783 99.967 H 284.783 A 10.86 10.86 0 0 1 295.643 110.827 V 217.865 A 10.86 10.86 0 0 1 284.783 228.725 H 284.783 A 10.86 10.86 0 0 1 273.923 217.865 V 110.827 A 10.86 10.86 0 0 1 284.783 99.967 Z"></path>
    <path id="logo-bar-7" fill="#f26522" opacity="0.7" d="M 317.044 131.494 H 317.044 A 10.86 10.86 0 0 1 327.904 142.354 V 185.574 A 10.86 10.86 0 0 1 317.044 196.434 H 317.044 A 10.86 10.86 0 0 1 306.184 185.574 V 142.354 A 10.86 10.86 0 0 1 317.044 131.494 Z"></path>
  </g>
</svg>